<svg width="80" height="41" viewBox="0 0 80 41" fill="none" xmlns="http://www.w3.org/2000/svg">
<mask id="path-1-inside-1_1_18543" fill="white">
<path d="M0.379761 0.719849H75.5655C77.7746 0.719849 79.5654 2.51071 79.5654 4.71985V36.7198C79.5654 38.929 77.7746 40.7198 75.5654 40.7198H0.379761V0.719849Z"/>
</mask>
<path d="M0.379761 0.719849H75.5655C77.7746 0.719849 79.5654 2.51071 79.5654 4.71985V36.7198C79.5654 38.929 77.7746 40.7198 75.5654 40.7198H0.379761V0.719849Z" fill="#F2F4F7"/>
<path d="M0.379761 -0.0801514H75.5654C78.2164 -0.0801514 80.3654 2.06888 80.3654 4.71985H78.7654C78.7654 2.95254 77.3328 1.51985 75.5654 1.51985H0.379761V-0.0801514ZM80.3654 36.7198C80.3654 39.3708 78.2164 41.5198 75.5654 41.5198H0.379761V39.9198H75.5654C77.3328 39.9198 78.7654 38.4872 78.7654 36.7198H80.3654ZM0.379761 40.7198V0.719849V40.7198ZM75.5654 -0.0801514C78.2164 -0.0801514 80.3654 2.06888 80.3654 4.71985V36.7198C80.3654 39.3708 78.2164 41.5198 75.5654 41.5198V39.9198C77.3328 39.9198 78.7654 38.4872 78.7654 36.7198V4.71985C78.7654 2.95254 77.3328 1.51985 75.5654 1.51985V-0.0801514Z" fill="#363640" fill-opacity="0.2" mask="url(#path-1-inside-1_1_18543)"/>
<path fill-rule="evenodd" clip-rule="evenodd" d="M43.0726 19.2198C43.0726 21.9812 40.834 24.2198 38.0726 24.2198C35.3112 24.2198 33.0726 21.9812 33.0726 19.2198C33.0726 16.4584 35.3112 14.2198 38.0726 14.2198C40.834 14.2198 43.0726 16.4584 43.0726 19.2198ZM41.9124 24.4649C40.8366 25.2539 39.509 25.7198 38.0726 25.7198C34.4828 25.7198 31.5726 22.8097 31.5726 19.2198C31.5726 15.63 34.4828 12.7198 38.0726 12.7198C41.6625 12.7198 44.5726 15.63 44.5726 19.2198C44.5726 20.6562 44.1067 21.9838 43.3177 23.0596L47.2816 27.0234C47.6696 27.4115 47.6696 28.0407 47.2816 28.4288C46.8935 28.8168 46.2643 28.8168 45.8762 28.4288L41.9124 24.4649Z" fill="#595B66"/>
</svg>
