<svg width="19" height="17" viewBox="0 0 19 17" fill="none" xmlns="http://www.w3.org/2000/svg">
<path d="M0.617554 5.61474C0.617554 2.95285 2.76772 0.749878 5.48241 0.749878C7.6044 0.749878 8.97676 2.10864 9.61755 2.93661C10.2584 2.10864 11.6308 0.749878 13.7527 0.749878C16.4682 0.749878 18.6176 2.9529 18.6176 5.61474C18.6176 6.77975 18.1504 7.9361 17.471 9.01488C16.7892 10.0975 15.8696 11.1402 14.9076 12.0876C13.5743 13.4007 12.0933 14.5886 11.031 15.4406C10.5794 15.8028 10.2035 16.1043 9.94685 16.3289C9.75825 16.4938 9.47681 16.4938 9.2883 16.3289C9.0316 16.1043 8.6557 15.8028 8.20414 15.4406C7.14186 14.5886 5.66081 13.4007 4.32752 12.0876C3.36557 11.1402 2.44591 10.0975 1.76414 9.01488C1.08479 7.9361 0.617554 6.77975 0.617554 5.61474ZM5.48241 1.74988C3.32684 1.74988 1.61755 3.49826 1.61755 5.61474C1.61755 6.51731 1.98308 7.48595 2.61032 8.48196C3.23514 9.47408 4.09588 10.4559 5.0292 11.3751C6.32788 12.6541 7.70178 13.7549 8.75151 14.596C9.07483 14.8551 9.3674 15.0895 9.61755 15.2969C9.86765 15.0895 10.1603 14.8551 10.4836 14.596C11.5334 13.7549 12.9073 12.6541 14.2059 11.3751C15.1393 10.4559 16 9.47408 16.6248 8.48196C17.2521 7.48595 17.6176 6.51731 17.6176 5.61474C17.6176 3.49821 15.909 1.74988 13.7527 1.74988C11.6582 1.74988 10.4357 3.45199 10.1209 3.96016C9.89025 4.33238 9.34482 4.33237 9.11425 3.96015C8.79945 3.45198 7.57699 1.74988 5.48241 1.74988Z" fill="#1F2026"/>
</svg>
